<?xml version="1.0" encoding="utf-8"?>
<!-- Generator: Adobe Illustrator 26.2.1, SVG Export Plug-In . SVG Version: 6.00 Build 0)  -->
<svg version="1.1" id="Capa_1" xmlns="http://www.w3.org/2000/svg" xmlns:xlink="http://www.w3.org/1999/xlink" x="0px" y="0px"
	 viewBox="0 0 42.02 50" style="enable-background:new 0 0 42.02 50;" xml:space="preserve">
<style type="text/css">
	.st0{fill:none;stroke:#0AAFF1;stroke-width:15;stroke-miterlimit:10;}
	.st1{fill:#0AAFF1;}
	.st2{fill:#FFFFFF;}
	.st3{fill:#FFFFFF;stroke:#E0E5EE;stroke-miterlimit:10;}
	.st4{fill:#606060;}
	.st5{fill:none;stroke:#0084F6;stroke-width:11;stroke-miterlimit:10;}
	.st6{fill:#00B346;}
	.st7{fill:#00A3C8;}
	.st8{fill:none;stroke:#00A3C8;stroke-miterlimit:10;}
	.st9{fill:none;stroke:#FFFFFF;stroke-width:4;stroke-miterlimit:10;}
	.st10{fill:#606060;stroke:#606060;stroke-width:5;stroke-miterlimit:10;}
	.st11{fill:none;stroke:#FFFFFF;stroke-width:10;stroke-miterlimit:10;}
	.st12{fill:#606060;stroke:#FFFFFF;stroke-width:10;stroke-miterlimit:10;}
	.st13{fill:#E70027;}
	.st14{fill:#FFFFFC;}
	.st15{fill:#FFFFFF;stroke:#606060;stroke-width:10;stroke-miterlimit:10;}
	.st16{fill:none;stroke:#000000;stroke-width:10;stroke-miterlimit:10;}
	.st17{fill:#F2F5FA;}
	.st18{fill:#FF8A5C;}
	.st19{fill:#F8F8F8;stroke:#E0E5EE;stroke-miterlimit:10;}
	.st20{fill:none;stroke:#C6C6C6;stroke-miterlimit:10;}
	.st21{fill:#FF5470;}
	.st22{fill:none;stroke:#FFFFFF;stroke-width:7;stroke-miterlimit:10;}
	.st23{fill:#FF7523;}
	.st24{fill:none;stroke:#FFFFFF;stroke-miterlimit:10;}
	.st25{fill:none;stroke:#0AAFF1;stroke-linecap:round;stroke-linejoin:round;stroke-miterlimit:10;}
	.st26{fill:#0AAFF1;stroke:#FFFFFF;stroke-linecap:round;stroke-linejoin:round;stroke-miterlimit:10;}
	.st27{opacity:0.25;fill:#1E93D1;}
	.st28{fill:#1E93D1;}
	.st29{fill:#1C5392;}
	.st30{fill:none;stroke:#FFFFFF;stroke-linecap:round;stroke-linejoin:round;stroke-miterlimit:10;}
	.st31{fill:none;stroke:#0AAFF1;stroke-width:2;stroke-linecap:round;stroke-linejoin:round;stroke-miterlimit:10;}
	.st32{fill:none;stroke:#0AAFF1;stroke-width:4;stroke-linecap:round;stroke-linejoin:round;stroke-miterlimit:10;}
	.st33{fill:none;stroke:#FFFFFF;stroke-width:5;stroke-miterlimit:10;}
	.st34{fill:none;stroke:#FFFFFF;stroke-width:5;stroke-linecap:round;stroke-linejoin:round;stroke-miterlimit:10;}
	.st35{fill:none;stroke:#0AAFF1;stroke-width:24;stroke-miterlimit:10;}
	.st36{fill:none;stroke:#F2F5FA;stroke-width:10;stroke-miterlimit:10;}
	.st37{fill:#B8D637;}
	.st38{fill:#1D1D1B;}
	.st39{fill:#88898B;}
	.st40{fill:#9F9FA1;}
	.st41{fill:#D2D2D3;}
	.st42{fill:#F7F7F7;}
	.st43{fill:none;stroke:#FFFFFF;stroke-width:4;stroke-linecap:round;stroke-linejoin:round;stroke-miterlimit:10;}
	.st44{fill:#0AAFF1;stroke:#FFFFFF;stroke-width:1.5;stroke-linecap:round;stroke-linejoin:round;stroke-miterlimit:10;}
	.st45{fill:#FFFFFF;stroke:#0AAFF1;stroke-width:1.5;stroke-linecap:round;stroke-linejoin:round;stroke-miterlimit:10;}
	.st46{fill:#FFFFFF;stroke:#0AAFF1;stroke-width:3;stroke-linecap:round;stroke-linejoin:round;stroke-miterlimit:10;}
	.st47{fill:none;stroke:#0AAFF1;stroke-width:3;stroke-linecap:round;stroke-linejoin:round;stroke-miterlimit:10;}
	.st48{fill:none;}
	.st49{fill:#FFFFFF;stroke:#0AAFF1;stroke-width:1.5;stroke-miterlimit:10;}
	.st50{fill:#0AAFF1;stroke:#FFFFFF;stroke-width:1.5;stroke-miterlimit:10;}
	.st51{fill:none;stroke:#0AAFF1;stroke-width:2;stroke-miterlimit:10;}
	.st52{fill:#FFFFFF;stroke:#0AAFF1;stroke-width:2;stroke-miterlimit:10;}
	.st53{fill:#0AAFF1;stroke:#FFFFFF;stroke-miterlimit:10;}
	.st54{fill:none;stroke:#0AAFF1;stroke-miterlimit:10;}
	.st55{fill:#FFFFFF;stroke:#0AAFF1;stroke-miterlimit:10;}
	.st56{fill:none;stroke:#FFFFFF;stroke-width:2;stroke-miterlimit:10;}
	.st57{fill:#0AAFF1;stroke:#0AAFF1;stroke-width:3;stroke-miterlimit:10;}
	.st58{fill:none;stroke:#0AAFF1;stroke-width:4;stroke-miterlimit:10;}
	.st59{fill:none;stroke:#0AAFF1;stroke-width:2.25;stroke-miterlimit:10;}
	.st60{fill:#1FB900;}
	.st61{fill:none;stroke:#0AAFF1;stroke-width:13;stroke-linecap:round;stroke-linejoin:round;stroke-miterlimit:10;}
	.st62{fill:none;stroke:#FFFFFF;stroke-width:1.5;stroke-linecap:round;stroke-linejoin:round;stroke-miterlimit:10;}
	.st63{fill:#F7FAF9;}
	.st64{fill:none;stroke:#FFFFFF;stroke-width:0.5;stroke-miterlimit:10;}
	.st65{fill:#FFFFFF;stroke:#0AAFF1;stroke-width:3;stroke-miterlimit:10;}
	.st66{fill:#606060;stroke:#0AAFF1;stroke-width:15;stroke-miterlimit:10;}
	.st67{fill:none;stroke:#FFFFFF;stroke-width:1.5;stroke-miterlimit:10;}
	.st68{fill:none;stroke:#0AAFF1;stroke-width:8;stroke-miterlimit:10;}
	.st69{fill:#FFFFFF;stroke:#0AAFF1;stroke-width:0.75;stroke-linecap:round;stroke-linejoin:round;stroke-miterlimit:10;}
	.st70{fill:none;stroke:#0AAFF1;stroke-width:10;stroke-linecap:round;stroke-linejoin:round;stroke-miterlimit:10;}
	.st71{fill:none;stroke:#E70027;stroke-width:10;stroke-linecap:round;stroke-linejoin:round;stroke-miterlimit:10;}
	.st72{opacity:0.5;fill:none;stroke:#E70027;stroke-width:10;stroke-miterlimit:10;}
	.st73{opacity:0.5;fill:#E70027;}
	.st74{fill:none;stroke:#FFFFFC;stroke-width:10;stroke-linecap:round;stroke-linejoin:round;stroke-miterlimit:10;}
	.st75{fill:none;stroke:#606060;stroke-width:15;stroke-linecap:round;stroke-linejoin:round;stroke-miterlimit:10;}
	.st76{fill:#606060;stroke:#FFFFFF;stroke-width:7;stroke-miterlimit:10;}
	.st77{fill:#0AAFF1;stroke:#0AAFF1;stroke-miterlimit:10;}
	.st78{fill:none;stroke:#606060;stroke-width:10;stroke-linecap:round;stroke-linejoin:round;stroke-miterlimit:10;}
	.st79{fill:none;stroke:#FFFFFF;stroke-width:7;stroke-miterlimit:10;stroke-dasharray:5.8286,5.8286;}
	.st80{fill:none;stroke:#000000;stroke-width:19;stroke-miterlimit:10;}
	.st81{fill:#0AAFF1;stroke:#FFFFFF;stroke-width:2;stroke-miterlimit:10;}
	.st82{fill:#45B8FF;}
	.st83{opacity:0.5;fill:none;stroke:#45B8FF;stroke-width:1.75;stroke-miterlimit:10;}
	.st84{fill:none;stroke:#000000;stroke-width:1.75;stroke-miterlimit:10;}
	.st85{fill:none;stroke:#000000;stroke-width:1.5;stroke-miterlimit:10;}
	.st86{fill:none;stroke:#0AAFF1;stroke-width:1.75;stroke-miterlimit:10;}
	.st87{fill:none;stroke:#0AAFF1;stroke-width:1.75;stroke-linecap:round;stroke-linejoin:round;stroke-miterlimit:10;}
	.st88{fill:#FFFFFC;stroke:#FFFFFC;stroke-width:3;stroke-miterlimit:10;}
	.st89{fill:none;stroke:#000000;stroke-width:2;stroke-miterlimit:10;}
	.st90{fill:none;stroke:#FFFFFF;stroke-width:2;stroke-linecap:round;stroke-linejoin:round;stroke-miterlimit:10;}
	.st91{fill:#00A3C8;stroke:#606060;stroke-width:5;stroke-miterlimit:10;}
	.st92{fill:#0084F6;}
	.st93{fill:#CDCDC9;}
	.st94{fill-rule:evenodd;clip-rule:evenodd;fill:#FFFFFF;}
	.st95{fill:none;stroke:#0AAFF1;stroke-width:5;stroke-miterlimit:10;}
	.st96{fill:none;stroke:#0AAFF1;stroke-width:5;stroke-linecap:round;stroke-linejoin:round;stroke-miterlimit:10;}
	.st97{fill:#FFFFFF;stroke:#0AAFF1;stroke-width:5;stroke-linecap:round;stroke-linejoin:round;stroke-miterlimit:10;}
	.st98{fill:none;stroke:#0AAFF1;stroke-width:3;stroke-miterlimit:10;}
	.st99{fill:#0AAFF1;stroke:#0AAFF1;stroke-width:6;stroke-linecap:round;stroke-linejoin:round;stroke-miterlimit:10;}
	.st100{fill:#00D06F;}
	.st101{fill:#0AAFF1;stroke:#0AAFF1;stroke-width:6;stroke-miterlimit:10;}
	.st102{fill:none;stroke:#0AAFF1;stroke-width:2.5;stroke-linecap:round;stroke-linejoin:round;stroke-miterlimit:10;}
	.st103{fill:#FFFF00;stroke:#000000;stroke-width:3;stroke-miterlimit:10;}
	.st104{fill:#53FC00;}
	.st105{fill:#80A51B;}
	.st106{fill:none;stroke:#80A51B;stroke-width:0.999;}
	.st107{fill:none;stroke:#000000;stroke-width:0.75;stroke-miterlimit:10;}
	.st108{opacity:0.4;}
	.st109{fill:#0078D4;}
	.st110{fill:#45D7FA;}
	.st111{fill:#189AE1;}
	.st112{fill:none;stroke:#606060;stroke-width:13;stroke-linecap:round;stroke-linejoin:round;stroke-miterlimit:10;}
	.st113{fill:none;stroke:#FFFFFF;stroke-width:7;stroke-linecap:round;stroke-linejoin:round;stroke-miterlimit:10;}
	.st114{fill:#FFFFFF;stroke:#FFFFFF;stroke-miterlimit:10;}
	.st115{fill:#DADADA;}
	.st116{fill:none;stroke:#20FF77;stroke-miterlimit:10;}
</style>
<g>
	<path class="st2" d="M1.79,19.83c0.61,0.23,1.29-0.07,1.52-0.68c1.32-3.45,3.63-6.42,6.7-8.6c3.23-2.29,6.98-3.51,10.87-3.51
		c1.72,0,3.43,0.23,5.07,0.7c5.83,1.64,10.55,6.04,12.61,11.79c0.17,0.48,0.62,0.78,1.11,0.78c0.13,0,0.27-0.02,0.4-0.07
		c0.61-0.22,0.93-0.89,0.71-1.5c-2.32-6.46-7.63-11.41-14.19-13.25c-1.85-0.52-3.77-0.79-5.71-0.79c-4.38,0-8.61,1.36-12.23,3.94
		c-3.44,2.45-6.04,5.79-7.53,9.67C0.88,18.92,1.19,19.6,1.79,19.83z"/>
	<path class="st2" d="M39.83,31.03c0.48,0.18,0.93,0.44,1.33,0.76c0.04-0.13,0.07-0.26,0.11-0.37c0.78-2.84,0.95-5.75,0.52-8.65
		c-0.1-0.64-0.7-1.08-1.34-0.99c-0.64,0.1-1.08,0.69-0.99,1.34c0.21,1.42,0.25,2.84,0.14,4.25c0.15,0.67,0.23,1.35,0.23,2.05V31.03z
		"/>
	<path class="st2" d="M25.31,10.01C23.87,9.6,22.38,9.4,20.87,9.4c-3.39,0-6.68,1.06-9.51,3.07c-2.75,1.96-4.81,4.63-5.94,7.74
		c-0.2,0.39-0.85,1.52-2.27,3.27c-0.39,0.48-1.41,1.41-2.72,2.47c-0.5,0.41-0.58,1.15-0.17,1.65c0.41,0.5,1.15,0.58,1.65,0.17
		c1.04-0.85,2.41-2.02,3.06-2.81c1.61-1.98,2.33-3.27,2.57-3.74c0.02-0.04,0.04-0.09,0.06-0.14c0.97-2.68,2.74-5,5.12-6.69
		c2.43-1.73,5.24-2.64,8.15-2.64c1.29,0,2.57,0.18,3.81,0.52c4.44,1.25,7.8,4.52,9.35,8.54c1.11,0.45,2.12,1.11,2.99,1.96
		C35.87,16.84,31.5,11.74,25.31,10.01z"/>
	<path class="st2" d="M31.13,20.15c-1.47-2.65-3.95-4.74-7.09-5.62c-1.03-0.29-2.1-0.44-3.17-0.44c-2.74,0-5.43,1-7.57,2.8
		c-0.5,0.42-0.56,1.16-0.14,1.66c0.42,0.5,1.16,0.56,1.66,0.14c1.72-1.45,3.87-2.25,6.06-2.25c0.86,0,1.71,0.12,2.54,0.35
		c2.13,0.6,3.88,1.89,5.08,3.57c0.67-0.15,1.36-0.23,2.06-0.23C30.75,20.13,30.94,20.14,31.13,20.15z"/>
	<path class="st2" d="M17.74,45.17c-1.2,1.01-2.37,1.94-3.4,2.72c-0.52,0.39-0.62,1.13-0.23,1.65c0.23,0.3,0.58,0.47,0.94,0.47
		c0.25,0,0.5-0.08,0.71-0.24c0.75-0.57,1.57-1.21,2.42-1.9c-0.28-0.64-0.44-1.33-0.44-2.05V45.17z"/>
	<path class="st2" d="M1.8,33.5c0.24,0,0.49-0.08,0.7-0.23c1.35-1.01,4.66-3.55,6.12-5.34c2.22-2.74,3.09-4.49,3.3-4.96
		c0.27-0.59,0-1.29-0.59-1.55c-0.59-0.27-1.29,0-1.55,0.59c-0.13,0.29-0.88,1.86-2.98,4.44c-0.89,1.1-3.02,2.95-5.7,4.94
		c-0.52,0.39-0.63,1.12-0.24,1.64C1.09,33.33,1.45,33.5,1.8,33.5z"/>
	<path class="st2" d="M7.51,46.99c-0.54,0.36-0.69,1.09-0.33,1.63c0.23,0.34,0.6,0.52,0.98,0.52c0.22,0,0.45-0.06,0.65-0.2
		c1.04-0.7,5.25-3.56,8.93-6.89v-3.24C13.96,42.62,8.68,46.21,7.51,46.99z"/>
	<path class="st2" d="M22.78,19.06c-0.62-0.17-1.26-0.26-1.9-0.26c-3.04,0-5.8,2.02-6.72,4.92c-0.1,0.26-0.96,2.3-3.71,5.68
		C8.28,32.07,2.76,36.04,1,37.22c-0.54,0.36-0.68,1.09-0.32,1.63c0.36,0.54,1.09,0.68,1.63,0.32c0.07-0.05,7.12-4.78,9.96-8.28
		c3.07-3.78,4-6.11,4.09-6.36c0.01-0.02,0.02-0.04,0.02-0.07c0.61-1.95,2.45-3.31,4.49-3.31c0.43,0,0.86,0.06,1.27,0.17
		c0.84,0.23,1.55,0.69,2.12,1.28c0.59-0.54,1.24-1,1.93-1.37C25.32,20.22,24.15,19.44,22.78,19.06z"/>
	<path class="st2" d="M21.19,24.72c-0.62-0.18-1.27,0.19-1.45,0.81c-0.01,0.03-0.82,2.76-4.74,7.58
		c-3.21,3.96-10.67,8.94-10.74,8.99c-0.54,0.36-0.69,1.09-0.33,1.63c0.23,0.34,0.6,0.52,0.98,0.52c0.22,0,0.45-0.06,0.65-0.2
		c0.32-0.21,7.83-5.23,11.27-9.47c2.66-3.27,4-5.68,4.64-7.07c0.13-0.62,0.32-1.22,0.57-1.8C21.99,25.26,21.67,24.85,21.19,24.72z"
		/>
	<path class="st2" d="M7.28,6.73c4.03-2.86,8.73-4.38,13.59-4.38c2.15,0,4.28,0.29,6.34,0.87c4.27,1.2,8.1,3.58,11.07,6.88
		c0.23,0.26,0.55,0.39,0.87,0.39c0.28,0,0.56-0.1,0.79-0.3c0.48-0.43,0.52-1.18,0.09-1.66c-3.27-3.63-7.48-6.25-12.18-7.57
		C25.59,0.32,23.24,0,20.87,0C15.51,0,10.34,1.66,5.92,4.81C5.39,5.19,5.27,5.92,5.64,6.45C6.02,6.98,6.75,7.1,7.28,6.73z"/>
	<path class="st2" d="M40.12,34.03c-0.11-0.13-0.23-0.25-0.36-0.36c-0.46-0.38-1.05-0.61-1.69-0.61h-0.58l0,0v-3.65
		c0-1.75-0.65-3.35-1.73-4.57h0c-1.27-1.44-3.13-2.36-5.2-2.36s-3.93,0.91-5.2,2.36h0c-1.07,1.22-1.73,2.82-1.73,4.57v3.65l0,0
		h-0.86c-0.64,0-1.23,0.23-1.69,0.61c-0.13,0.11-0.25,0.23-0.36,0.36c-0.12,0.14-0.22,0.3-0.3,0.46l0,0
		c-0.19,0.37-0.3,0.79-0.3,1.23l0,0v10.09l0,0c0,0.91,0.46,1.71,1.15,2.19h0c0.15,0.1,0.31,0.19,0.48,0.26
		c0.32,0.13,0.67,0.21,1.04,0.21h15.31c0.37,0,0.72-0.07,1.04-0.21c0.96-0.4,1.63-1.35,1.63-2.45V35.72c0-0.37-0.07-0.72-0.21-1.04
		C40.42,34.45,40.28,34.23,40.12,34.03z M27.74,26.6c0.56-0.56,1.3-0.96,2.11-1.1v0c0.23-0.04,0.46-0.06,0.7-0.06
		c1.1,0,2.09,0.45,2.81,1.17c0.04,0.04,0.09,0.09,0.13,0.14c0.64,0.71,1.03,1.64,1.03,2.67l0,0v3.65l0,0h-7.95l0,0v-3.65l0,0
		c0-1.03,0.39-1.97,1.03-2.67C27.65,26.69,27.7,26.65,27.74,26.6z M28.83,43.95l0.8-3.17c-0.45-0.3-0.75-0.82-0.75-1.41
		c0-0.93,0.76-1.69,1.69-1.69c0.93,0,1.69,0.76,1.69,1.69c0,0.59-0.3,1.1-0.75,1.41l0.8,3.17H28.83z"/>
</g>
</svg>
