<?xml version="1.0" encoding="utf-8"?>
<!-- Generator: Adobe Illustrator 26.2.1, SVG Export Plug-In . SVG Version: 6.00 Build 0)  -->
<svg version="1.1" id="Capa_1" xmlns="http://www.w3.org/2000/svg" xmlns:xlink="http://www.w3.org/1999/xlink" x="0px" y="0px"
	 viewBox="0 0 50 50" style="enable-background:new 0 0 50 50;" xml:space="preserve">
<style type="text/css">
	.st0{fill:none;stroke:#0AAFF1;stroke-width:15;stroke-miterlimit:10;}
	.st1{fill:#0AAFF1;}
	.st2{fill:#FFFFFF;}
	.st3{fill:#FFFFFF;stroke:#E0E5EE;stroke-miterlimit:10;}
	.st4{fill:#606060;}
	.st5{fill:none;stroke:#0084F6;stroke-width:11;stroke-miterlimit:10;}
	.st6{fill:#00B346;}
	.st7{fill:#00A3C8;}
	.st8{fill:none;stroke:#00A3C8;stroke-miterlimit:10;}
	.st9{fill:none;stroke:#FFFFFF;stroke-width:4;stroke-miterlimit:10;}
	.st10{fill:#606060;stroke:#606060;stroke-width:5;stroke-miterlimit:10;}
	.st11{fill:none;stroke:#FFFFFF;stroke-width:10;stroke-miterlimit:10;}
	.st12{fill:#606060;stroke:#FFFFFF;stroke-width:10;stroke-miterlimit:10;}
	.st13{fill:#E70027;}
	.st14{fill:#FFFFFC;}
	.st15{fill:#FFFFFF;stroke:#606060;stroke-width:10;stroke-miterlimit:10;}
	.st16{fill:none;stroke:#000000;stroke-width:10;stroke-miterlimit:10;}
	.st17{fill:#F2F5FA;}
	.st18{fill:#FF8A5C;}
	.st19{fill:#F8F8F8;stroke:#E0E5EE;stroke-miterlimit:10;}
	.st20{fill:none;stroke:#C6C6C6;stroke-miterlimit:10;}
	.st21{fill:#FF5470;}
	.st22{fill:none;stroke:#FFFFFF;stroke-width:7;stroke-miterlimit:10;}
	.st23{fill:#FF7523;}
	.st24{fill:none;stroke:#FFFFFF;stroke-miterlimit:10;}
	.st25{fill:none;stroke:#0AAFF1;stroke-linecap:round;stroke-linejoin:round;stroke-miterlimit:10;}
	.st26{fill:#0AAFF1;stroke:#FFFFFF;stroke-linecap:round;stroke-linejoin:round;stroke-miterlimit:10;}
	.st27{opacity:0.25;fill:#1E93D1;}
	.st28{fill:#1E93D1;}
	.st29{fill:#1C5392;}
	.st30{fill:none;stroke:#FFFFFF;stroke-linecap:round;stroke-linejoin:round;stroke-miterlimit:10;}
	.st31{fill:none;stroke:#0AAFF1;stroke-width:2;stroke-linecap:round;stroke-linejoin:round;stroke-miterlimit:10;}
	.st32{fill:none;stroke:#0AAFF1;stroke-width:4;stroke-linecap:round;stroke-linejoin:round;stroke-miterlimit:10;}
	.st33{fill:none;stroke:#FFFFFF;stroke-width:5;stroke-miterlimit:10;}
	.st34{fill:none;stroke:#FFFFFF;stroke-width:5;stroke-linecap:round;stroke-linejoin:round;stroke-miterlimit:10;}
	.st35{fill:none;stroke:#0AAFF1;stroke-width:24;stroke-miterlimit:10;}
	.st36{fill:none;stroke:#F2F5FA;stroke-width:10;stroke-miterlimit:10;}
	.st37{fill:#B8D637;}
	.st38{fill:#1D1D1B;}
	.st39{fill:#88898B;}
	.st40{fill:#9F9FA1;}
	.st41{fill:#D2D2D3;}
	.st42{fill:#F7F7F7;}
	.st43{fill:none;stroke:#FFFFFF;stroke-width:4;stroke-linecap:round;stroke-linejoin:round;stroke-miterlimit:10;}
	.st44{fill:#0AAFF1;stroke:#FFFFFF;stroke-width:1.5;stroke-linecap:round;stroke-linejoin:round;stroke-miterlimit:10;}
	.st45{fill:#FFFFFF;stroke:#0AAFF1;stroke-width:1.5;stroke-linecap:round;stroke-linejoin:round;stroke-miterlimit:10;}
	.st46{fill:#FFFFFF;stroke:#0AAFF1;stroke-width:3;stroke-linecap:round;stroke-linejoin:round;stroke-miterlimit:10;}
	.st47{fill:none;stroke:#0AAFF1;stroke-width:3;stroke-linecap:round;stroke-linejoin:round;stroke-miterlimit:10;}
	.st48{fill:none;}
	.st49{fill:#FFFFFF;stroke:#0AAFF1;stroke-width:1.5;stroke-miterlimit:10;}
	.st50{fill:#0AAFF1;stroke:#FFFFFF;stroke-width:1.5;stroke-miterlimit:10;}
	.st51{fill:none;stroke:#0AAFF1;stroke-width:2;stroke-miterlimit:10;}
	.st52{fill:#FFFFFF;stroke:#0AAFF1;stroke-width:2;stroke-miterlimit:10;}
	.st53{fill:#0AAFF1;stroke:#FFFFFF;stroke-miterlimit:10;}
	.st54{fill:none;stroke:#0AAFF1;stroke-miterlimit:10;}
	.st55{fill:#FFFFFF;stroke:#0AAFF1;stroke-miterlimit:10;}
	.st56{fill:none;stroke:#FFFFFF;stroke-width:2;stroke-miterlimit:10;}
	.st57{fill:#0AAFF1;stroke:#0AAFF1;stroke-width:3;stroke-miterlimit:10;}
	.st58{fill:none;stroke:#0AAFF1;stroke-width:4;stroke-miterlimit:10;}
	.st59{fill:none;stroke:#0AAFF1;stroke-width:2.25;stroke-miterlimit:10;}
	.st60{fill:#1FB900;}
	.st61{fill:none;stroke:#0AAFF1;stroke-width:13;stroke-linecap:round;stroke-linejoin:round;stroke-miterlimit:10;}
	.st62{fill:none;stroke:#FFFFFF;stroke-width:1.5;stroke-linecap:round;stroke-linejoin:round;stroke-miterlimit:10;}
	.st63{fill:#F7FAF9;}
	.st64{fill:none;stroke:#FFFFFF;stroke-width:0.5;stroke-miterlimit:10;}
	.st65{fill:#FFFFFF;stroke:#0AAFF1;stroke-width:3;stroke-miterlimit:10;}
	.st66{fill:#606060;stroke:#0AAFF1;stroke-width:15;stroke-miterlimit:10;}
	.st67{fill:none;stroke:#FFFFFF;stroke-width:1.5;stroke-miterlimit:10;}
	.st68{fill:none;stroke:#0AAFF1;stroke-width:8;stroke-miterlimit:10;}
	.st69{fill:#FFFFFF;stroke:#0AAFF1;stroke-width:0.75;stroke-linecap:round;stroke-linejoin:round;stroke-miterlimit:10;}
	.st70{fill:none;stroke:#0AAFF1;stroke-width:10;stroke-linecap:round;stroke-linejoin:round;stroke-miterlimit:10;}
	.st71{fill:none;stroke:#E70027;stroke-width:10;stroke-linecap:round;stroke-linejoin:round;stroke-miterlimit:10;}
	.st72{opacity:0.5;fill:none;stroke:#E70027;stroke-width:10;stroke-miterlimit:10;}
	.st73{opacity:0.5;fill:#E70027;}
	.st74{fill:none;stroke:#FFFFFC;stroke-width:10;stroke-linecap:round;stroke-linejoin:round;stroke-miterlimit:10;}
	.st75{fill:none;stroke:#606060;stroke-width:15;stroke-linecap:round;stroke-linejoin:round;stroke-miterlimit:10;}
	.st76{fill:#606060;stroke:#FFFFFF;stroke-width:7;stroke-miterlimit:10;}
	.st77{fill:#0AAFF1;stroke:#0AAFF1;stroke-miterlimit:10;}
	.st78{fill:none;stroke:#606060;stroke-width:10;stroke-linecap:round;stroke-linejoin:round;stroke-miterlimit:10;}
	.st79{fill:none;stroke:#FFFFFF;stroke-width:7;stroke-miterlimit:10;stroke-dasharray:5.8286,5.8286;}
	.st80{fill:none;stroke:#000000;stroke-width:19;stroke-miterlimit:10;}
	.st81{fill:#0AAFF1;stroke:#FFFFFF;stroke-width:2;stroke-miterlimit:10;}
	.st82{fill:#45B8FF;}
	.st83{opacity:0.5;fill:none;stroke:#45B8FF;stroke-width:1.75;stroke-miterlimit:10;}
	.st84{fill:none;stroke:#000000;stroke-width:1.75;stroke-miterlimit:10;}
	.st85{fill:none;stroke:#000000;stroke-width:1.5;stroke-miterlimit:10;}
	.st86{fill:none;stroke:#0AAFF1;stroke-width:1.75;stroke-miterlimit:10;}
	.st87{fill:none;stroke:#0AAFF1;stroke-width:1.75;stroke-linecap:round;stroke-linejoin:round;stroke-miterlimit:10;}
	.st88{fill:#FFFFFC;stroke:#FFFFFC;stroke-width:3;stroke-miterlimit:10;}
	.st89{fill:none;stroke:#000000;stroke-width:2;stroke-miterlimit:10;}
	.st90{fill:none;stroke:#FFFFFF;stroke-width:2;stroke-linecap:round;stroke-linejoin:round;stroke-miterlimit:10;}
	.st91{fill:#00A3C8;stroke:#606060;stroke-width:5;stroke-miterlimit:10;}
	.st92{fill:#0084F6;}
	.st93{fill:#CDCDC9;}
	.st94{fill-rule:evenodd;clip-rule:evenodd;fill:#FFFFFF;}
	.st95{fill:none;stroke:#0AAFF1;stroke-width:5;stroke-miterlimit:10;}
	.st96{fill:none;stroke:#0AAFF1;stroke-width:5;stroke-linecap:round;stroke-linejoin:round;stroke-miterlimit:10;}
	.st97{fill:#FFFFFF;stroke:#0AAFF1;stroke-width:5;stroke-linecap:round;stroke-linejoin:round;stroke-miterlimit:10;}
	.st98{fill:none;stroke:#0AAFF1;stroke-width:3;stroke-miterlimit:10;}
	.st99{fill:#0AAFF1;stroke:#0AAFF1;stroke-width:6;stroke-linecap:round;stroke-linejoin:round;stroke-miterlimit:10;}
	.st100{fill:#00D06F;}
	.st101{fill:#0AAFF1;stroke:#0AAFF1;stroke-width:6;stroke-miterlimit:10;}
	.st102{fill:none;stroke:#0AAFF1;stroke-width:2.5;stroke-linecap:round;stroke-linejoin:round;stroke-miterlimit:10;}
	.st103{fill:#FFFF00;stroke:#000000;stroke-width:3;stroke-miterlimit:10;}
	.st104{fill:#53FC00;}
	.st105{fill:#80A51B;}
	.st106{fill:none;stroke:#80A51B;stroke-width:0.999;}
	.st107{fill:none;stroke:#000000;stroke-width:0.75;stroke-miterlimit:10;}
	.st108{opacity:0.4;}
	.st109{fill:#0078D4;}
	.st110{fill:#45D7FA;}
	.st111{fill:#189AE1;}
	.st112{fill:none;stroke:#606060;stroke-width:13;stroke-linecap:round;stroke-linejoin:round;stroke-miterlimit:10;}
	.st113{fill:none;stroke:#FFFFFF;stroke-width:7;stroke-linecap:round;stroke-linejoin:round;stroke-miterlimit:10;}
	.st114{fill:#FFFFFF;stroke:#FFFFFF;stroke-miterlimit:10;}
	.st115{fill:#DADADA;}
	.st116{fill:none;stroke:#20FF77;stroke-miterlimit:10;}
</style>
<g>
	<path class="st2" d="M3.57,21.43C1.6,21.43,0,23.03,0,25s1.6,3.57,3.57,3.57s3.57-1.6,3.57-3.57S5.55,21.43,3.57,21.43z
		 M3.57,27.32c-1.28,0-2.32-1.04-2.32-2.32s1.04-2.32,2.32-2.32S5.9,23.72,5.9,25S4.86,27.32,3.57,27.32z"/>
	<path class="st2" d="M46.43,21.43c-1.97,0-3.57,1.6-3.57,3.57s1.6,3.57,3.57,3.57c1.8,0,3.28-1.35,3.53-3.08
		C49.97,25.33,50,25.17,50,25c0-0.1-0.02-0.2-0.03-0.29C49.82,22.87,48.3,21.43,46.43,21.43z M46.43,27.32
		c-1.28,0-2.32-1.04-2.32-2.32s1.04-2.32,2.32-2.32c1.28,0,2.32,1.04,2.32,2.32S47.71,27.32,46.43,27.32z"/>
	<path class="st2" d="M28.57,46.43c0-1.97-1.6-3.57-3.57-3.57s-3.57,1.6-3.57,3.57c0,1.36,0.77,2.53,1.9,3.14
		C23.82,49.83,24.39,50,25,50c0.61,0,1.18-0.17,1.69-0.44C27.8,48.95,28.57,47.78,28.57,46.43z M25,48.75
		c-1.28,0-2.32-1.04-2.32-2.32S23.72,44.1,25,44.1s2.32,1.04,2.32,2.32S26.28,48.75,25,48.75z"/>
	<path class="st2" d="M25,7.15c1.97,0,3.57-1.6,3.57-3.57S26.97,0,25,0s-3.57,1.6-3.57,3.57S23.03,7.15,25,7.15z M25,1.25
		c1.28,0,2.32,1.04,2.32,2.32S26.28,5.9,25,5.9s-2.32-1.04-2.32-2.32S23.72,1.25,25,1.25z"/>
	<path class="st2" d="M42.68,37.62c-0.68-0.68-1.57-1.05-2.53-1.05s-1.85,0.37-2.53,1.05c-1.39,1.39-1.39,3.66,0,5.06
		c0.7,0.7,1.61,1.05,2.53,1.05c0.41,0,0.81-0.08,1.2-0.22c0.49-0.17,0.94-0.44,1.33-0.83c0.37-0.37,0.63-0.79,0.8-1.25
		C43.97,40.15,43.71,38.65,42.68,37.62z M38.51,41.79c-0.91-0.91-0.91-2.38,0-3.29c0.44-0.44,1.02-0.68,1.64-0.68
		c0.62,0,1.2,0.24,1.64,0.68c0.91,0.91,0.91,2.38,0,3.29C40.89,42.7,39.41,42.7,38.51,41.79z"/>
	<path class="st2" d="M13.42,9.85c0-0.95-0.37-1.85-1.05-2.53c-1.39-1.39-3.66-1.39-5.06,0C6.65,8,6.28,8.9,6.28,9.85
		s0.37,1.85,1.05,2.53C8,13.05,8.9,13.42,9.85,13.42c0.95,0,1.85-0.37,2.53-1.05C13.05,11.7,13.42,10.8,13.42,9.85z M11.49,11.49
		c-0.44,0.44-1.02,0.68-1.64,0.68c-0.62,0-1.2-0.24-1.64-0.68c-0.44-0.44-0.68-1.02-0.68-1.64s0.24-1.2,0.68-1.64
		c0.45-0.45,1.05-0.68,1.64-0.68c0.59,0,1.19,0.23,1.64,0.68c0.44,0.44,0.68,1.02,0.68,1.64S11.93,11.05,11.49,11.49z"/>
	<rect x="11.98" y="24.37" class="st2" width="1.04" height="1.25"/>
	<rect x="39.06" y="24.37" class="st2" width="1.04" height="1.25"/>
	<rect x="41.15" y="24.37" class="st2" width="1.04" height="1.25"/>
	<rect x="9.89" y="24.37" class="st2" width="1.04" height="1.25"/>
	<rect x="7.81" y="24.37" class="st2" width="1.04" height="1.25"/>
	<rect x="36.98" y="24.37" class="st2" width="1.04" height="1.25"/>
	<rect x="24.37" y="7.81" class="st2" width="1.25" height="1.04"/>
	<rect x="24.37" y="41.15" class="st2" width="1.25" height="1.04"/>
	<rect x="24.37" y="9.89" class="st2" width="1.25" height="1.04"/>
	<rect x="24.37" y="39.06" class="st2" width="1.25" height="1.04"/>
	
		<rect x="12.59" y="12.69" transform="matrix(0.707 -0.7072 0.7072 0.707 -5.4735 13.2167)" class="st2" width="1.25" height="1.04"/>
	
		<rect x="15.53" y="15.64" transform="matrix(0.7069 -0.7074 0.7074 0.7069 -6.6938 16.1681)" class="st2" width="1.25" height="1.04"/>
	
		<rect x="14.06" y="14.17" transform="matrix(0.7071 -0.7071 0.7071 0.7071 -6.0837 14.687)" class="st2" width="1.25" height="1.04"/>
	<path class="st2" d="M37.6,36.71l-0.74-0.74l-0.87,0.87c0,0.01-0.01,0.01-0.01,0.02l0.73,0.73L37.6,36.71z"/>
	
		<rect x="33.32" y="15.53" transform="matrix(0.7072 -0.7071 0.7071 0.7072 -1.5164 28.6592)" class="st2" width="1.04" height="1.25"/>
	<path class="st2" d="M13.14,35.98l-0.74,0.74l0.88,0.88l0.73-0.73c0-0.01-0.01-0.01-0.01-0.02L13.14,35.98z"/>
	<rect x="34.79" y="14.06" transform="matrix(0.707 -0.7072 0.7072 0.707 -0.04 29.2777)" class="st2" width="1.04" height="1.25"/>
	
		<rect x="36.27" y="12.59" transform="matrix(0.7072 -0.7071 0.7071 0.7072 1.4297 29.8798)" class="st2" width="1.04" height="1.25"/>
	<path class="st2" d="M12.38,42.68c0.68-0.68,1.05-1.57,1.05-2.53c0-0.95-0.37-1.85-1.05-2.53c-0.68-0.68-1.57-1.05-2.53-1.05
		c-0.95,0-1.85,0.37-2.53,1.05c-0.68,0.68-1.05,1.57-1.05,2.53c0,0.48,0.09,0.94,0.27,1.36c0.18,0.43,0.44,0.83,0.78,1.17
		c0.37,0.37,0.79,0.63,1.25,0.8c0.41,0.16,0.84,0.24,1.28,0.24C10.77,43.72,11.68,43.37,12.38,42.68z M8.21,38.51
		c0.44-0.44,1.02-0.68,1.64-0.68c0.62,0,1.2,0.24,1.64,0.68c0.44,0.44,0.68,1.02,0.68,1.64s-0.24,1.2-0.68,1.64
		c-0.91,0.91-2.38,0.91-3.29,0c-0.44-0.44-0.68-1.02-0.68-1.64S7.77,38.95,8.21,38.51z"/>
	<path class="st2" d="M40.15,13.42c0.95,0,1.85-0.37,2.53-1.05c1.39-1.39,1.39-3.66,0-5.06c-1.39-1.39-3.66-1.39-5.06,0
		c-1.39,1.39-1.39,3.66,0,5.06C38.3,13.05,39.2,13.42,40.15,13.42z M38.51,8.21c0.45-0.45,1.05-0.68,1.64-0.68
		c0.59,0,1.19,0.23,1.64,0.68c0.91,0.91,0.91,2.38,0,3.29c-0.44,0.44-1.02,0.68-1.64,0.68c-0.62,0-1.2-0.24-1.64-0.68
		C37.6,10.59,37.6,9.11,38.51,8.21z"/>
	<path class="st2" d="M34.57,23.99c-0.01-0.03-0.03-0.05-0.05-0.07c-0.04-0.06-0.08-0.13-0.12-0.19c-0.16-0.22-0.35-0.42-0.57-0.58
		c-0.42-0.31-0.94-0.5-1.51-0.5h-0.69v-3.43c0-1.83-0.74-3.49-1.95-4.69c0,0-0.01-0.01-0.01-0.01c-0.2-0.2-0.42-0.39-0.64-0.56
		c-0.06-0.04-0.12-0.09-0.17-0.13c-0.16-0.12-0.33-0.22-0.5-0.33c-0.82-0.48-1.75-0.8-2.74-0.89c-0.21-0.02-0.41-0.03-0.63-0.03
		c-0.21,0-0.42,0.01-0.63,0.03c-1.58,0.15-3,0.85-4.07,1.92c0,0-0.01,0.01-0.01,0.01c-0.21,0.21-0.4,0.43-0.57,0.66
		c-0.03,0.04-0.06,0.09-0.1,0.13c-0.14,0.2-0.28,0.4-0.4,0.61c-0.16,0.28-0.3,0.58-0.42,0.88c-0.03,0.07-0.06,0.15-0.08,0.22
		c-0.24,0.68-0.37,1.41-0.37,2.18v3.43h-0.69c-0.41,0-0.8,0.1-1.14,0.27c-0.1,0.05-0.19,0.1-0.28,0.16
		c-0.25,0.17-0.47,0.39-0.65,0.64c-0.04,0.06-0.08,0.12-0.12,0.19c-0.01,0.02-0.03,0.05-0.05,0.07c-0.2,0.36-0.31,0.78-0.31,1.22
		v9.66c0,0.62,0.22,1.18,0.58,1.62c0.16,0.19,0.34,0.35,0.54,0.49c0.14,0.09,0.28,0.17,0.43,0.24c0.31,0.13,0.64,0.2,0.99,0.2h6.71
		h1.25h6.71c0.33,0,0.64-0.06,0.93-0.18c0.25-0.1,0.49-0.24,0.69-0.41c0.13-0.1,0.24-0.22,0.35-0.35c0.16-0.19,0.29-0.4,0.38-0.63
		c0.03-0.08,0.06-0.15,0.09-0.23c0.06-0.19,0.1-0.4,0.11-0.61c0-0.05,0.01-0.1,0.01-0.15v-9.66c0-0.43-0.11-0.84-0.3-1.2
		C34.58,24,34.58,23.99,34.57,23.99z M21.19,19.22c0-1.05,0.43-2,1.12-2.69c0.01-0.01,0.02-0.01,0.02-0.02
		c0.14-0.14,0.3-0.27,0.47-0.39c0.62-0.44,1.38-0.71,2.2-0.71c2.1,0,3.81,1.71,3.81,3.81v1.08v0.4v1.95h-7.62V19.22z M29.33,28.4
		l-4.53,4.53c-0.17,0.17-0.4,0.26-0.63,0.26s-0.46-0.09-0.63-0.26l-2.88-2.88c-0.35-0.35-0.35-0.91,0-1.26
		c0.35-0.35,0.91-0.35,1.26,0l2.25,2.25l3.9-3.9c0.35-0.35,0.92-0.35,1.26,0C29.68,27.49,29.68,28.05,29.33,28.4z"/>
</g>
</svg>
