<?xml version="1.0" encoding="utf-8"?>
<!-- Generator: Adobe Illustrator 24.0.2, SVG Export Plug-In . SVG Version: 6.00 Build 0)  -->
<svg version="1.1" id="Capa_1" xmlns="http://www.w3.org/2000/svg" xmlns:xlink="http://www.w3.org/1999/xlink" x="0px" y="0px"
	 viewBox="0 0 400 100" style="enable-background:new 0 0 400 100;" xml:space="preserve">
<style type="text/css">
	.st0{fill:#D0D0D0;}
	.st1{fill:#AFCA0A;}
</style>
<g>
	<g>
		<path class="st0" d="M17.03,50.31c0-3.46,0.52-6.61,1.55-9.44c1.03-2.83,2.5-5.25,4.41-7.25s4.23-3.55,6.96-4.64
			s5.79-1.63,9.19-1.63c2.24,0,4.13,0.18,5.67,0.53c1.55,0.35,2.88,0.76,4,1.22l-1.68,6.64c-1.03-0.37-2.19-0.67-3.47-0.89
			c-1.28-0.22-2.65-0.33-4.1-0.33c-1.91,0-3.63,0.31-5.16,0.92c-1.54,0.61-2.84,1.56-3.91,2.85c-1.08,1.28-1.9,2.92-2.48,4.9
			c-0.58,1.98-0.87,4.36-0.87,7.12c0,2.76,0.3,5.15,0.89,7.15c0.59,2.01,1.43,3.66,2.52,4.95c1.09,1.29,2.4,2.25,3.95,2.88
			c1.55,0.62,3.26,0.94,5.15,0.94c1.78,0,3.4-0.18,4.87-0.54c1.47-0.36,2.76-0.76,3.88-1.2l1.55,6.68c-1.27,0.64-2.83,1.17-4.67,1.6
			s-4.09,0.64-6.74,0.64c-3.29,0-6.26-0.55-8.9-1.66c-2.64-1.11-4.9-2.67-6.76-4.69c-1.86-2.02-3.3-4.45-4.31-7.29
			C17.53,56.93,17.03,53.78,17.03,50.31z"/>
		<path class="st0" d="M54.79,72.74v-5.59h5.62V33.6h-5.62v-5.59h21.08v5.59h-5.66v33.55h5.66v5.59H54.79z"/>
		<path class="st0" d="M113.11,60.34c0,1.97-0.38,3.76-1.13,5.36c-0.76,1.6-1.83,2.97-3.22,4.11c-1.39,1.14-3.08,2.02-5.05,2.65
			c-1.97,0.62-4.18,0.94-6.61,0.94c-1.29,0-2.63-0.08-4-0.23c-1.37-0.15-2.72-0.37-4.06-0.64c-1.34-0.27-2.62-0.61-3.85-1
			c-1.23-0.39-2.34-0.84-3.32-1.35l2.37-7.1c1.07,0.35,2.12,0.67,3.14,0.97c1.02,0.3,2.03,0.55,3.04,0.77
			c1.01,0.22,2.02,0.39,3.04,0.51c1.02,0.12,2.07,0.18,3.14,0.18c2.06,0,3.65-0.43,4.77-1.3c1.12-0.87,1.68-2.09,1.68-3.67
			c0-0.79-0.19-1.5-0.56-2.14c-0.37-0.64-0.91-1.21-1.61-1.73c-0.7-0.52-1.55-0.99-2.53-1.43c-0.99-0.44-2.08-0.86-3.29-1.25
			c-2.02-0.68-3.84-1.44-5.46-2.27c-1.62-0.83-3-1.79-4.14-2.88c-1.14-1.09-2.02-2.31-2.65-3.68c-0.62-1.37-0.94-2.92-0.94-4.65
			c0-1.97,0.38-3.77,1.13-5.38s1.83-2.99,3.22-4.14c1.39-1.15,3.07-2.04,5.03-2.68c1.96-0.64,4.16-0.95,6.6-0.95
			c1.36,0,2.71,0.1,4.06,0.31c1.35,0.21,2.64,0.47,3.86,0.79c1.23,0.32,2.36,0.67,3.39,1.07c1.03,0.39,1.91,0.79,2.63,1.18
			l-1.84,7.14c-1.1-0.37-2.13-0.72-3.09-1.04c-0.97-0.32-1.91-0.59-2.83-0.82c-0.92-0.23-1.84-0.41-2.76-0.54
			c-0.92-0.13-1.87-0.2-2.86-0.2c-2.17,0-3.79,0.46-4.85,1.38c-1.06,0.92-1.6,2.11-1.6,3.55c0,0.7,0.13,1.35,0.39,1.96
			c0.26,0.6,0.68,1.17,1.25,1.69c0.57,0.53,1.3,1.01,2.2,1.46c0.9,0.45,2,0.88,3.29,1.3c2.5,0.79,4.64,1.63,6.41,2.53
			c1.78,0.9,3.22,1.9,4.34,2.99c1.12,1.1,1.94,2.32,2.47,3.67C112.85,57.14,113.11,58.65,113.11,60.34z"/>
		<path class="st0" d="M148.93,60.34c0,1.97-0.38,3.76-1.13,5.36c-0.76,1.6-1.83,2.97-3.22,4.11c-1.39,1.14-3.08,2.02-5.05,2.65
			c-1.97,0.62-4.18,0.94-6.61,0.94c-1.29,0-2.63-0.08-4-0.23c-1.37-0.15-2.72-0.37-4.06-0.64c-1.34-0.27-2.62-0.61-3.85-1
			c-1.23-0.39-2.34-0.84-3.32-1.35l2.37-7.1c1.07,0.35,2.12,0.67,3.14,0.97c1.02,0.3,2.03,0.55,3.04,0.77
			c1.01,0.22,2.02,0.39,3.04,0.51c1.02,0.12,2.07,0.18,3.14,0.18c2.06,0,3.65-0.43,4.77-1.3c1.12-0.87,1.68-2.09,1.68-3.67
			c0-0.79-0.19-1.5-0.56-2.14c-0.37-0.64-0.91-1.21-1.61-1.73c-0.7-0.52-1.55-0.99-2.53-1.43c-0.99-0.44-2.08-0.86-3.29-1.25
			c-2.02-0.68-3.84-1.44-5.46-2.27c-1.62-0.83-3-1.79-4.14-2.88c-1.14-1.09-2.02-2.31-2.65-3.68c-0.62-1.37-0.94-2.92-0.94-4.65
			c0-1.97,0.38-3.77,1.13-5.38s1.83-2.99,3.22-4.14c1.39-1.15,3.07-2.04,5.03-2.68c1.96-0.64,4.16-0.95,6.6-0.95
			c1.36,0,2.71,0.1,4.06,0.31c1.35,0.21,2.64,0.47,3.86,0.79c1.23,0.32,2.36,0.67,3.39,1.07c1.03,0.39,1.91,0.79,2.63,1.18
			l-1.84,7.14c-1.1-0.37-2.13-0.72-3.09-1.04c-0.97-0.32-1.91-0.59-2.83-0.82c-0.92-0.23-1.84-0.41-2.76-0.54
			c-0.92-0.13-1.87-0.2-2.86-0.2c-2.17,0-3.79,0.46-4.85,1.38c-1.06,0.92-1.6,2.11-1.6,3.55c0,0.7,0.13,1.35,0.39,1.96
			c0.26,0.6,0.68,1.17,1.25,1.69c0.57,0.53,1.3,1.01,2.2,1.46c0.9,0.45,2,0.88,3.29,1.3c2.5,0.79,4.64,1.63,6.41,2.53
			c1.78,0.9,3.22,1.9,4.34,2.99c1.12,1.1,1.94,2.32,2.47,3.67C148.67,57.14,148.93,58.65,148.93,60.34z"/>
		<path class="st0" d="M156.27,28.01h16.55c2.85,0,5.38,0.35,7.58,1.04s4.05,1.66,5.54,2.91c1.49,1.25,2.63,2.75,3.4,4.51
			c0.78,1.75,1.17,3.71,1.17,5.86c0,2.15-0.39,4.11-1.17,5.87c-0.78,1.77-1.91,3.28-3.4,4.56c-1.49,1.27-3.34,2.25-5.54,2.94
			c-2.2,0.69-4.73,1.04-7.58,1.04h-6.74v16.02h-9.8V28.01z M166.07,35.18v14.37h6.02c5.59,0,8.39-2.41,8.39-7.24
			c0-2.46-0.7-4.26-2.09-5.41c-1.39-1.15-3.49-1.73-6.3-1.73H166.07z"/>
	</g>
	<g>
		<path class="st1" d="M231.92,35.11V26.6h-31.38v8.51h11.33v25.11c0,6.55,5.33,11.88,11.88,11.88h3.04v-8.51h-3.04
			c-1.86,0-3.37-1.51-3.37-3.37V35.11H231.92z"/>
		<g>
			<path class="st1" d="M375.27,26.64c1.1,0,2.12,0.18,3.06,0.54c0.94,0.36,1.75,0.87,2.44,1.54c0.69,0.67,1.23,1.48,1.62,2.43
				c0.39,0.95,0.58,2.02,0.58,3.2c0,1.18-0.19,2.25-0.58,3.2c-0.39,0.95-0.93,1.76-1.62,2.43c-0.69,0.67-1.5,1.18-2.44,1.54
				c-0.94,0.36-1.96,0.54-3.06,0.54s-2.12-0.18-3.07-0.54c-0.94-0.36-1.76-0.87-2.45-1.54c-0.69-0.67-1.23-1.48-1.62-2.43
				c-0.39-0.95-0.59-2.02-0.59-3.2c0-1.18,0.2-2.25,0.59-3.2c0.39-0.95,0.93-1.76,1.62-2.43c0.69-0.67,1.5-1.18,2.45-1.54
				C373.15,26.82,374.17,26.64,375.27,26.64z M375.27,41c0.88,0,1.71-0.13,2.49-0.4c0.78-0.27,1.46-0.68,2.03-1.23
				c0.58-0.55,1.03-1.24,1.37-2.08c0.34-0.83,0.51-1.82,0.51-2.95c0-1.13-0.17-2.11-0.51-2.95c-0.34-0.83-0.79-1.53-1.37-2.08
				c-0.58-0.55-1.25-0.96-2.03-1.23c-0.78-0.27-1.61-0.4-2.49-0.4c-0.89,0-1.72,0.13-2.5,0.4c-0.78,0.27-1.46,0.68-2.03,1.23
				c-0.58,0.55-1.03,1.24-1.37,2.08c-0.33,0.83-0.5,1.82-0.5,2.95c0,1.13,0.17,2.11,0.5,2.95c0.33,0.83,0.79,1.53,1.37,2.08
				c0.58,0.55,1.25,0.96,2.03,1.23C373.55,40.87,374.38,41,375.27,41z M372.19,30.23h3.28c0.44,0,0.86,0.05,1.24,0.15
				c0.39,0.1,0.73,0.25,1.01,0.46c0.29,0.21,0.51,0.47,0.68,0.79c0.17,0.32,0.25,0.7,0.25,1.14c0,0.25-0.05,0.48-0.14,0.69
				s-0.23,0.41-0.39,0.58c-0.17,0.17-0.36,0.32-0.58,0.46c-0.22,0.13-0.46,0.24-0.71,0.33l1.97,3.36h-1.37l-1.82-3.13h-2.08v3.13
				h-1.34V30.23z M373.53,31.31v2.67h2.42c0.15-0.02,0.3-0.06,0.46-0.11c0.16-0.05,0.31-0.12,0.45-0.21
				c0.14-0.09,0.25-0.21,0.34-0.35c0.09-0.14,0.13-0.32,0.13-0.53c0-0.53-0.18-0.9-0.53-1.12c-0.35-0.22-0.86-0.33-1.53-0.33H373.53
				z"/>
		</g>
		<path class="st1" d="M304.4,72.09h-8.51V52.4c0-3.55-2.89-6.44-6.44-6.44c-3.55,0-6.44,2.89-6.44,6.44v19.7h-8.51V52.4
			c0-8.25,6.71-14.95,14.95-14.95c8.25,0,14.96,6.71,14.96,14.95V72.09z"/>
		<path class="st1" d="M267.62,56.82h-27.17c0.39,2.4,1.44,4.3,3.14,5.72c1.7,1.41,3.88,2.12,6.52,2.12c3.16,0,5.88-1.1,8.15-3.32
			l7.13,3.35c-1.78,2.52-3.9,4.38-6.38,5.59c-2.48,1.21-5.42,1.81-8.83,1.81c-5.29,0-9.59-1.67-12.92-5
			c-3.33-3.33-4.99-7.51-4.99-12.53c0-5.14,1.66-9.41,4.97-12.81c3.31-3.4,7.47-5.1,12.47-5.1c5.31,0,9.62,1.7,12.95,5.1
			c3.32,3.4,4.99,7.89,4.99,13.46L267.62,56.82z M259.16,50.16c-0.56-1.88-1.66-3.41-3.31-4.59c-1.65-1.18-3.55-1.77-5.73-1.77
			c-2.36,0-4.43,0.66-6.21,1.98c-1.12,0.83-2.15,2.28-3.1,4.37H259.16z"/>
		<path class="st1" d="M322.54,38.84v-12.2h-8.51v12.2h-6.58l0,0v6.66v0h6.58v14.71c0,6.55,5.33,11.88,11.88,11.88h3.21v-8.51h-3.21
			c-1.86,0-3.37-1.51-3.37-3.37V45.5h6.58v0v-6.66l0,0H322.54z"/>
		<path class="st1" d="M349.83,36.61c-9.78,0-17.74,7.96-17.74,17.74c0,9.78,7.96,17.74,17.74,17.74c9.78,0,17.74-7.96,17.74-17.74
			C367.57,44.57,359.61,36.61,349.83,36.61z M349.41,60.06c-0.53-0.46-1.19-0.73-1.89-0.79l-7.92-0.62l15.76-15.54l0.08,22.13
			L349.41,60.06z"/>
	</g>
</g>
</svg>
